<?xml version="1.0" encoding="UTF-8" standalone="no"?>
<svg
   xmlns:svg="http://www.w3.org/2000/svg"
   xmlns="http://www.w3.org/2000/svg"
   xmlns:xlink="http://www.w3.org/1999/xlink"
   xmlns:sodipodi="http://sodipodi.sourceforge.net/DTD/sodipodi-0.dtd"
   xmlns:inkscape="http://www.inkscape.org/namespaces/inkscape"
   inkscape:version="1.1-dev (4e2169377c, 2020-05-06)"
   sodipodi:docname="mongo.svg"
   xml:space="preserve"
   style="enable-background:new 0 0 652 652;"
   viewBox="0 0 652 652"
   y="0px"
   x="0px"
   id="layer"
   version="1.1"><defs
   id="defs67" /><sodipodi:namedview
   inkscape:current-layer="layer"
   inkscape:window-maximized="1"
   inkscape:window-y="0"
   inkscape:window-x="0"
   inkscape:cy="411.93995"
   inkscape:cx="-275.79105"
   inkscape:zoom="0.62408442"
   showgrid="false"
   id="namedview65"
   inkscape:window-height="1015"
   inkscape:window-width="1920"
   inkscape:pageshadow="2"
   inkscape:pageopacity="0"
   guidetolerance="10"
   gridtolerance="10"
   objecttolerance="10"
   borderopacity="1"
   bordercolor="#666666"
   pagecolor="#ffffff" />
<style
   id="style2"
   type="text/css">
	.st0{clip-path:url(#SVGID_4_);fill:url(#SVGID_5_);}
	.st1{clip-path:url(#SVGID_7_);fill:url(#SVGID_8_);}
	.st2{fill:#FFE29C;}
	.st3{fill:#47474A;}
</style>


<g
   transform="matrix(3.8007675,0,0,3.8856724,87.185287,-928.10079)"
   id="g95"><g
     id="g12">
	<defs
   id="defs5">
		<path
   id="SVGID_1_"
   d="m 59.6,261.1 c -6.9,1.8 -8.4,114.6 -4.9,118.6 8.1,1.6 7.5,23.9 7.5,23.9 l 4.4,1.5 c 0,0 -0.9,-11.7 0.4,-17.3 1.3,-5.6 7.9,-9 7.9,-9 C 68.5,292 63.5,262 60,261.1 Z" />
	</defs>
	<use
   height="100%"
   width="100%"
   y="0"
   x="0"
   xlink:href="#SVGID_1_"
   style="overflow:visible;fill:#c2bfbf"
   id="use7" />
	<clipPath
   id="SVGID_2_">
		<use
   height="100%"
   width="100%"
   y="0"
   x="0"
   xlink:href="#SVGID_1_"
   style="overflow:visible"
   id="use9" />
	</clipPath>
</g><g
     id="g27">
	<defs
   id="defs15">
		<path
   id="SVGID_3_"
   d="m 63.9,347.2 c 0,0 -3.4,32.5 5.1,36.4 0,0 38.4,-25.3 29.4,-77.8 -8.7,-38.2 -29.1,-50.7 -31.3,-55.5 -2.4,-3.4 -4.9,-9.4 -4.9,-9.4 z" />
	</defs>
	<clipPath
   id="SVGID_4_">
		<use
   height="100%"
   width="100%"
   y="0"
   x="0"
   xlink:href="#SVGID_3_"
   style="overflow:visible"
   id="use17" />
	</clipPath>
	
		<linearGradient
   id="SVGID_5_"
   gradientUnits="userSpaceOnUse"
   x1="8.3659"
   y1="723.5603"
   x2="12.5354"
   y2="723.5603"
   gradientTransform="matrix(8.5332,33.1259,35.6422,-5.7144,-25795.228,4097.9004)">
		<stop
   offset="0"
   style="stop-color:#49A547"
   id="stop20" />
		<stop
   offset="1"
   style="stop-color:#409143"
   id="stop22" />
	</linearGradient>
	<polygon
   style="fill:url(#SVGID_5_)"
   class="st0"
   points="105.6,233.6 142.8,377.9 62.4,390.8 25.2,246.5 "
   clip-path="url(#SVGID_4_)"
   id="polygon25" />
</g><g
     id="g46">
	<defs
   id="defs30">
		<path
   id="SVGID_6_"
   d="m 58.5,248.5 c -5,3.9 -30.4,25.2 -32.5,68.6 -0.1,1.2 -0.1,2.4 -0.1,3.5 0,41.2 34,64.4 34,64.4 2.5,-5.8 5.1,-34.1 4.2,-64.7 -0.2,-7.9 0.1,-75.1 -2.1,-79.9 -0.1,3.3 -0.3,4.7 -3.5,8.1" />
	</defs>
	<clipPath
   id="SVGID_7_">
		<use
   height="100%"
   width="100%"
   y="0"
   x="0"
   xlink:href="#SVGID_6_"
   style="overflow:visible"
   id="use32" />
	</clipPath>
	
		<linearGradient
   id="SVGID_8_"
   gradientUnits="userSpaceOnUse"
   x1="22.2736"
   y1="745.44202"
   x2="26.4431"
   y2="745.44202"
   gradientTransform="matrix(14.9349,-3.3934,-4.6669,-13.9447,3167.4082,10788.777)">
		<stop
   offset="0"
   style="stop-color:#42A347"
   id="stop35" />
		<stop
   offset="0.329"
   style="stop-color:#4AA74A"
   id="stop37" />
		<stop
   offset="0.8484"
   style="stop-color:#61B251"
   id="stop39" />
		<stop
   offset="1"
   style="stop-color:#69B654"
   id="stop41" />
	</linearGradient>
	<polygon
   style="fill:url(#SVGID_8_)"
   class="st1"
   points="-19.1,250.6 62.4,232.1 110.1,374.7 28.7,393.2 "
   clip-path="url(#SVGID_7_)"
   id="polygon44" />
</g></g>

</svg>
