<?xml version="1.0" encoding="UTF-8"?>
<svg width="512" height="512" version="1.1" viewBox="0 0 135.47 135.47" xmlns="http://www.w3.org/2000/svg" xmlns:cc="http://creativecommons.org/ns#" xmlns:dc="http://purl.org/dc/elements/1.1/" xmlns:rdf="http://www.w3.org/1999/02/22-rdf-syntax-ns#">
 <metadata>
  <rdf:RDF>
   <cc:Work rdf:about="">
    <dc:format>image/svg+xml</dc:format>
    <dc:type rdf:resource="http://purl.org/dc/dcmitype/StillImage"/>
    <dc:title/>
   </cc:Work>
  </rdf:RDF>
 </metadata>
 <g transform="matrix(3.4461 0 0 3.4461 -149.63 -182.79)" fill="#689f63" stroke-width=".35278">
  <path d="m63.082 91.928c-0.51506 0-1.0266-0.13511-1.4781-0.39511l-4.705-2.7855c-0.70273-0.39299-0.35983-0.53199-0.12806-0.61207 0.93698-0.32808 1.1271-0.40217 2.1272-0.97014 0.10513-0.05997 0.24271-0.03881 0.35031 0.02469l3.6146 2.1449c0.13053 0.07055 0.31574 0.07055 0.43674 0l14.093-8.135c0.13053-0.07408 0.2152-0.22578 0.2152-0.381v-16.263c0-0.16228-0.08467-0.30692-0.21802-0.38806l-14.088-8.128c-0.13053-0.07761-0.30339-0.07761-0.43392 0l-14.085 8.128c-0.13652 0.07761-0.22331 0.2293-0.22331 0.38453v16.263c0 0.15522 0.08467 0.30339 0.21872 0.37747l3.8594 2.2296c2.0955 1.0477 3.3761-0.18697 3.3761-1.4287v-16.051c0-0.2293 0.17992-0.40569 0.40922-0.40569h1.7851c0.22225 0 0.40569 0.17639 0.40569 0.40569v16.058c0 2.794-1.524 4.3991-4.1734 4.3991-0.81492 0-1.457 0-3.2491-0.88194l-3.6971-2.1308c-0.91369-0.52917-1.4781-1.5169-1.4781-2.5717v-16.263c0-1.0583 0.56444-2.0461 1.4781-2.5682l14.108-8.1386c0.89253-0.50447 2.0779-0.50447 2.9633 0l14.09 8.1421c0.91017 0.52564 1.4781 1.5099 1.4781 2.5682v16.263c0 1.0548-0.56797 2.0391-1.4781 2.5682l-14.09 8.1386c-0.45156 0.26106-0.96308 0.39511-1.4852 0.39511"/>
  <path d="m67.436 80.721c-6.1665 0-7.4595-2.8307-7.4595-5.2049 0-0.22578 0.18203-0.40569 0.40816-0.40569h1.8203c0.20108 0 0.37042 0.1464 0.40217 0.34502 0.27517 1.8549 1.0936 2.7905 4.8225 2.7905 2.9704 0 4.2333-0.67098 4.2333-2.2461 0-0.90664-0.35983-1.5804-4.9742-2.032-3.8594-0.381-6.2442-1.2312-6.2442-4.318 0-2.8434 2.3989-4.5367 6.417-4.5367 4.512 0 6.7486 1.5663 7.0308 4.9318 0.01058 0.11642-0.03175 0.22931-0.10936 0.31397-0.07761 0.08114-0.18697 0.13053-0.29986 0.13053h-1.8309c-0.1905 0-0.3563-0.13406-0.39511-0.3175-0.44097-1.9509-1.5064-2.5753-4.4027-2.5753-3.242 0-3.6195 1.1289-3.6195 1.9756 0 1.0266 0.4445 1.3264 4.8189 1.905 4.3321 0.57503 6.3888 1.3864 6.3888 4.4309 0 3.0692-2.5612 4.8295-7.0273 4.8295"/>
 </g>
</svg>
